<svg xmlns="http://www.w3.org/2000/svg" xmlns:xlink="http://www.w3.org/1999/xlink" width="358.055" height="501.194" viewBox="0 0 358.055 501.194">
  <defs>
    <clipPath id="clip-path">
      <rect id="Rectangle_196" data-name="Rectangle 196" width="358.055" height="501.194" fill="#3e3d3d"/>
    </clipPath>
  </defs>
  <g id="Group_255" data-name="Group 255" opacity="0.28">
    <g id="Group_254" data-name="Group 254" clip-path="url(#clip-path)">
      <path id="Path_396" data-name="Path 396" d="M272.168,206.132V91.71L113.306,0V232.374C47.406,195.438-5.235,150.136.416,238.168V409.481l158.861,91.712V326.234l39.9,23.062v57.768l158.869,91.712V294.93c.879-43.645-52.273-71.4-85.877-88.8M150.838,486.581,8.854,404.61C13.29,160.681-21.162,165.68,113.306,242.1l8.438,4.843,29.094,16.7V486.581Zm1.084-164.638c1.274.775,2.76,1.637,4.867,2.853-1.329-.749-2.9-1.645-4.867-2.853m7.356-5.447-2.04-1.178a20.257,20.257,0,0,1-2.656-1.719c1.023.638,2.495,1.546,4.7,2.9V258.761l-37.534-21.544V14.61L263.728,96.582V201.34L199.176,164.7V339.555ZM349.6,484.163,207.614,402.192V179.186l56.114,31.848,8.44,4.79c98.972,48.9,75.166,56.762,77.437,268.339" transform="translate(0 0.001)" fill="#3e3d3d"/>
    </g>
  </g>
</svg>
